<svg width="650" height="339" viewBox="0 0 650 339" fill="none" xmlns="http://www.w3.org/2000/svg">
<path d="M104.828 124.947C107.13 127.653 105.928 132.379 104.317 135.216C102.702 138.059 95.8501 140.718 93.1224 143.277C89.1584 146.996 84.4921 155.734 82.4199 160.794C76.2559 175.843 73.807 192.921 69.6866 208.623C70.1148 209.03 79.222 204.346 80.4418 203.681C81.1352 203.302 81.2096 202.574 81.7655 202.274C95.7517 194.745 124.961 180.054 140.79 179.88C150.607 179.772 155.843 185.771 154.505 195.463C153.599 202.014 147.452 215.562 144.446 221.927C137.934 235.713 128.812 248.629 120.573 261.562C118.59 264.674 119.524 263.158 117.523 265.777C117.39 265.951 116.258 267.966 115.351 269.313C102.293 288.715 91.6428 306.498 77.5977 324.099C76.2656 325.768 75.678 327.101 73.6318 330.08C73.2703 330.607 72.6088 331.7 72.2519 332.23C71.1269 333.9 68.6919 337.268 66.9656 338.311C65.8145 339.006 61.4554 340.554 60.7688 334.289C60.6937 333.604 61.3331 331.589 61.3331 331.589C62.8226 328.304 63.3596 327.517 63.8398 326.705C69.0307 317.933 76.4236 309.711 82.2865 301.241C99.6461 276.162 115.541 251.874 128.893 225.165C132.184 218.584 137.566 209.529 139.315 202.107C141.845 191.375 134.352 192.542 126.751 194.71C114.617 198.17 99.5297 205.895 88.4497 212.252C80.239 216.962 71.6996 222.168 64.8029 228.767C64.9667 235.474 64.8091 242.448 64.2616 249.164C63.4653 258.929 63.6485 274.47 50.1416 274.529C46.8904 274.543 38.6868 272.501 34.7143 271.963C29.3425 271.236 19.8917 272.826 13.8616 273.742C11.8359 274.05 10.7424 275.056 8.36015 275.182C6.90204 275.259 3.61351 274.169 2.48895 273.322C-2.44659 269.605 0.899134 263.86 4.41902 260.487C6.11203 258.865 8.69668 257.845 10.0484 256.661C18.2233 249.501 26.1066 242.189 34.5763 235.136C41.0143 229.775 50.312 225.082 53.4243 216.445C57.1206 206.186 59.2125 193.289 62.1175 182.673C64.0012 175.789 67.4737 167.208 69.1371 159.733C69.3544 158.756 70.5354 154.484 68.4203 155.152L42.6395 169.186C39.0875 170.13 37.9354 169.231 35.1218 167.497C34.1792 166.386 34.6309 164.786 34.2916 163.615C34.13 163.057 33.1051 163.157 33.1153 162.878C33.1309 162.452 34.3471 157.192 34.5109 156.934C35.0058 156.154 37.8202 155.05 38.7558 154.44C54.0797 144.445 70.9362 143.6 84.2262 129.617C86.902 126.802 87.3276 124.735 92.0374 122.983C96.0815 121.478 101.812 121.401 104.828 124.947ZM49.7525 240.652C48.8476 240.508 48.1543 240.772 47.3529 241.137C41.3966 243.852 36.6081 249.417 31.7185 253.128L28.541 258.574L46.2536 257.379L49.7525 240.652Z" fill="#894A23"/>
<path d="M240.043 159.31C250.7 157.658 262.014 150.584 273.109 152.307C279.805 153.346 277.683 162.847 272.207 164.128C266.852 165.381 260.509 165.061 254.692 166.545C250.179 167.697 240.245 171.078 236.18 173.081C235.324 173.502 234.453 173.811 233.972 174.723C229.587 185.385 225.132 196.18 222.046 207.346C225.162 205.875 228.378 204.495 231.477 202.978C234.596 201.451 237.774 197.811 241.792 199.497C246.03 201.275 243.522 207.909 240.66 210.205C236.107 213.859 225.915 217.291 220.326 220.697C215.902 223.392 215.447 227.184 214.502 232.178C213.035 239.926 212.264 248.506 215.01 255.991C216.914 257.376 224.432 250.144 225.892 248.649C230.196 244.244 233.78 238.209 238.115 233.928C240.345 231.726 247.61 225.237 250.872 227.294C252.244 230.076 250.984 233.783 249.568 236.371C246.591 241.812 230.659 259.464 225.577 263.065C219.994 267.022 209.028 270.788 204.765 263.302C201.478 257.528 201.447 241.942 202.11 235.204C202.293 233.345 203.198 232.141 203.391 230.402C198.427 234.092 178.926 242.533 179.587 230.746C179.835 226.316 190.229 215.328 194.831 215.236C197.569 215.182 199.754 216.984 200.497 219.508L207.259 214.717L219.465 180.452C218.947 179.956 215.66 181.575 214.854 181.935C206.871 185.501 198.534 191.528 189.549 191.988C182.925 192.327 184.713 182.74 189.175 180.712C191.323 179.735 193.072 180.038 194.924 179.373C202.801 176.545 210.334 171.88 218.042 168.46C219.857 167.655 223.279 167.382 224.593 166.02C224.876 165.726 227.971 159.366 228.167 158.693C229.6 153.771 229.898 142.89 238.287 144.705C245.175 146.195 239.811 154.944 240.043 159.31Z" fill="#894A23"/>
<path d="M359.427 137.083C362.081 140.327 358.797 145.626 356.672 148.373C346.886 161.026 318.482 183.858 315.026 198.465C313.084 206.673 318.344 212.376 326.518 212.522C331.343 212.609 337.026 209.777 341.615 211.505C335.48 223.37 312.028 228.912 303.157 217.804C296.883 209.948 299.853 200.707 303.875 192.481C311.4 177.092 327.188 166.151 337.762 152.916C333.281 152.83 328.584 154.916 324.471 156.641C319.215 158.846 303.722 168.463 300.095 168.909C290.396 170.1 292.102 157.454 300.54 153.294C315.972 145.686 336.414 142.147 352.394 135.093C353.979 134.868 358.44 135.877 359.427 137.083Z" fill="#894A23"/>
<path d="M519.243 92.2633C520.825 90.5243 526.697 89.2881 528.696 90.4619C532.064 95.9952 528.589 103.198 526.429 108.711C519.809 125.612 509.628 146.463 506.351 164.279C505.831 167.102 504.414 176.497 509.065 176.591C509.487 176.6 516.01 173.966 516.92 173.527C523.882 170.171 529.122 164.548 535.17 160.968C545.355 154.939 549.582 160.879 541.24 168.936C537.231 172.808 521.901 183.949 517.095 185.87C515.68 186.436 514.343 186.016 513.093 186.367C507.729 187.874 500.837 190.294 496.287 185.509C488.121 176.919 496.705 153.97 500.105 143.968C502.746 136.202 505.989 127.809 508.913 120.08C510.518 115.835 514.601 109.049 515.532 105.54C516.477 101.98 516.454 95.3296 519.243 92.2633Z" fill="#894A23"/>
<path d="M131.209 1.94874C132.974 4.10972 130.926 14.2025 130.761 17.4655C130.322 26.1306 130.135 34.7965 130.761 43.3963C135.749 37.9444 140.994 32.6304 145.953 27.1597C146.367 26.7033 146.318 25.6687 146.8 25.1446C151.883 19.623 158.033 25.9722 154.336 30.3905C151.593 33.6684 146.187 37.576 142.952 41.1379C135.024 49.867 128.573 59.7777 121.758 69.3369C122.25 70.2344 123.426 69.4206 124.028 69.0366C128.752 66.025 139.432 55.3108 145.068 56.3056C153.037 57.7123 146.66 72.9554 145.729 77.8471C144.792 82.7718 142.835 90.9514 142.688 95.5902C142.578 99.0905 142.422 104.22 147.327 103.729C150.919 106.248 142.796 115.186 136.907 106.753C130.725 97.9011 138.857 76.5528 140.394 66.4551C139.97 65.9911 133.585 70.6922 132.738 71.3097C127.888 74.8474 117.117 86.8799 111.455 79.5953C108.67 76.0123 111.743 72.1837 113.527 68.8226C117.038 62.2058 121.747 56.2468 125.999 50.1201C121.291 34.797 124.414 18.5268 123.053 2.74224C123.778 -1.034 129.187 -0.5265 131.209 1.94874Z" fill="#894A23"/>
<path d="M405.658 141.782C400.29 147.175 398.827 153.162 395.739 159.754C378.734 196.05 361.2 234.042 348.245 271.906C346.209 277.858 338.519 297.96 339.849 302.935C340.615 305.798 345.235 306.895 341.31 311.11C337.595 315.1 331.627 313.557 330.846 308.059C330.043 302.409 333.255 293.922 334.677 288.419C347.103 240.314 372.805 194.186 390.971 147.316L391.116 145.228C384.894 145.313 377.598 152.541 372.168 146.493C370.567 141.708 374.511 138.893 378.426 137.383C383.255 135.521 390.4 134.388 395.107 132.227C399.279 130.31 401.669 122.931 403.361 118.674C403.916 117.28 403.804 115.745 404.298 114.484C408.046 104.927 412.126 95.526 415.275 85.7134C420.597 78.3567 427.954 81.4447 426.578 90.5138C425.892 95.0363 421.026 100.857 418.932 105.367C416.593 110.407 413.388 118.471 411.653 123.728C411.259 124.92 410.224 127.986 412.524 127.838C416.786 127.286 424.987 122.742 428.764 122.899C432.154 123.041 434.014 126.158 431.008 128.927C423.964 135.415 414.204 133.196 405.658 141.782Z" fill="#894A23"/>
<path d="M478.39 135.128C480.48 137.201 478.041 142.667 475.301 143.591C470.499 145.209 461.71 141.436 456.051 145.233C456.041 146.574 458.191 145.353 458.984 146.461C460.285 148.279 457.876 158.741 457.149 161.373C456.542 163.573 453.229 170.977 453.564 172.318C454.32 175.343 463.972 174.524 460.167 181.036C456.542 187.24 452.118 185.452 446.767 186.253C440.021 187.264 436.094 199.652 425.511 199.651C421.889 199.651 414.281 197.003 413.651 192.894C412.363 184.485 421.052 176.885 428.236 174.197C433.418 172.259 440.789 173.131 443.329 168.099C444.928 164.934 447.418 157.768 448.628 154.165C449.158 152.586 450.189 149.629 450.278 148.111C450.385 146.269 447.046 147.849 445.443 147.842C440.313 147.821 440.226 143.54 443.24 140.472C447.681 135.95 473.995 130.77 478.39 135.128Z" fill="#894A23"/>
<path d="M193.633 43.5587C211.531 42.0916 209.736 60.857 205.177 72.384C204.032 75.2792 196.03 92.3823 191.896 85.9079C189.828 82.6691 196.095 75.5253 197.725 72.0052C201.54 63.768 204.687 48.8476 190.815 51.7024C190.699 53.841 191.754 55.2167 190.836 57.462C188.862 62.2888 174.216 74.0433 169.131 76.1818C156.741 81.3934 151.413 74.2476 159.999 63.8822C166.133 56.478 184.019 44.3469 193.633 43.5587ZM164.832 69.6505C167.419 71.999 182.087 59.3199 181.537 54.9243C175.089 58.2396 167.846 62.8939 164.832 69.6505Z" fill="#894A23"/>
<path d="M357.043 45.3204C348.442 48.7496 331.288 59.2384 330.024 42.4645C329.48 35.2594 334.601 13.6631 344.433 14.7532C351.352 15.5204 343.602 22.7304 342.24 25.123C340.474 28.223 336.762 39.6733 338.984 42.4942C339.301 42.8492 339.685 43.1614 340.152 43.2924C344.617 44.5473 355.229 35.1163 362.226 37.2814C372.754 40.5395 358.758 61.0774 355.933 66.3032C355.184 67.6901 355.161 69.561 354.141 70.9218C350.471 75.8159 342.79 72.9926 345.647 66.2975C347.901 61.0153 353.38 54.351 356.013 49.0913C356.607 47.9048 357.147 46.693 357.043 45.3204Z" fill="#894A23"/>
<path d="M403.815 7.04906C407.181 10.4731 400.502 24.9022 399.262 29.4199C398.307 32.899 394.522 49.345 395.232 51.7327C396.105 54.6703 398.7 53.1312 400.904 52.189C407.264 49.4703 411.738 41.6436 418.494 43.3356C423.951 47.6843 406.561 58.6994 403.131 60.1725C397.346 62.6572 388.849 64.0115 386.768 56.3708C383.783 45.4102 391.872 27.5701 394.829 16.6784C395.413 14.528 395.01 9.12245 397.163 7.47534C398.283 6.61822 402.693 5.90808 403.815 7.04906Z" fill="#894A23"/>
<path d="M127.398 144.105C130.117 143.771 132.352 144.184 134.834 145.329C139.729 147.586 154.623 157.928 158.992 161.61C161.182 163.456 161.567 164.733 160.675 167.67C160.138 168.467 159.725 168.13 159.033 168.029C154.869 167.415 148.563 165.311 144.261 164.117C138.946 162.641 122.29 158.308 118.572 155.766C111.232 150.747 122.566 144.698 127.398 144.105Z" fill="#894A23"/>
<path d="M443.839 41.4736C444.56 42.0032 448.986 33.8299 453.04 35.1355C455.143 36.5226 454.758 38.1695 453.727 40.1253C452.281 42.8667 447.005 51.4774 444.795 53.0018C437.396 58.1033 434.677 48.4453 433.71 42.9124C432.727 37.2861 432.588 24.4254 435.828 19.7326C437.598 17.1682 442.858 16.7074 443.7 19.5078C444.544 22.3146 442.43 29.0354 442.514 32.8602C442.541 34.0655 443.487 41.215 443.839 41.4736Z" fill="#894A23"/>
<path d="M278.692 26.0332C287.375 29.8837 279.275 32.9261 274.764 35.3877C275.608 37.4123 282.688 34.5426 281.85 40.4816C281.491 43.0253 275.558 45.3429 276.374 48.5258L287.606 41.7952C281.422 37.3763 285.356 34.831 289.993 31.993C292.682 30.3478 306.443 22.8755 308.656 22.4074C309.9 22.1444 311.548 22.0004 312.702 22.5758C317.891 28.5181 310.778 30.37 306.221 32.2602C306.382 36.2618 306.023 40.3184 305.537 44.2753C304.127 55.7532 300.108 84.9532 294.31 93.9324C292.526 96.6962 290.504 97.416 287.643 95.5636C281.742 91.7426 288.956 87.5292 290.697 83.2883C292.212 79.5989 293.469 73.1155 294.377 69.0222C296.733 58.4033 298.589 47.2309 298.541 36.3519C297.502 37.8174 291.641 40.6773 291.157 41.4779C290.165 43.1176 290.966 45.4896 288.586 47.8825C284.227 52.265 271.443 60.1431 265.708 63.5165C262.875 65.1823 254.257 71.4116 252.997 64.6924C251.909 58.8913 264.18 57.5091 265.748 52.0353C263.09 53.0475 258.909 53.5829 258.162 49.9661C256.63 42.5459 268.772 45.6158 270.261 38.9199C269.01 37.8998 263.848 44.1256 260.325 40.1686C258.527 38.1493 260.172 34.9183 261.935 33.5007C262.971 32.6673 264.611 32.4883 265.855 31.6417C269.97 28.8408 272.52 24.0401 272.829 19.0634C267.675 19.0517 264.874 23.8835 261.589 26.111C259.912 27.2476 257.452 27.7867 255.518 29.0291C252.051 31.2559 248.989 35.1768 245.538 37.598C245.863 49.4336 239.689 61.0238 240.686 73.1741C242.668 73.2629 244.412 70.0226 246.485 71.2638C245.503 75.9515 241.98 85.2119 235.543 82.1425C232.816 80.8419 232.811 73.8782 232.987 71.2645C233.224 67.7361 237.743 46.2642 236.829 45.321C235.81 45.1213 235.349 45.4318 234.558 45.9337C230.201 48.6957 222.611 57.3993 218.652 58.9076C216.586 59.6947 214.464 59.7035 213.148 57.6995L213.177 54.7384L249.404 24.86C251.506 22.1233 249.922 17.8272 253.711 16.3418C255.463 15.6547 257.071 16.0766 258.723 15.5706C262.216 14.5001 265.782 13.2885 269.477 12.1943C272.78 11.2158 284.142 4.49326 285.569 9.26745C286.912 13.7583 277.583 20.3377 278.692 26.0332Z" fill="#894A23"/>
<path d="M251.454 1.2967C257.178 0.574482 262.605 2.85652 258.301 8.75368L228.791 40.1917C227.108 42.7195 221.587 40.7169 222.288 38.2501C229.53 28.1686 238.994 19.8201 247.1 10.4138C239.529 5.92322 245.271 2.07693 251.454 1.2967Z" fill="#894A23"/>
<path d="M314.415 10.2719C316.878 10.2502 319.291 13.6023 318.172 15.8566C317.072 18.0709 310.517 19.0421 308.193 20.0286C303.51 22.0164 292.73 28.8393 288.09 27.9169C283.811 27.0661 284.362 21.329 288.322 20.0859C295.594 19.3058 307.915 10.3294 314.415 10.2719Z" fill="#894A23"/>
<path d="M472.596 16.5938C478.429 15.4716 478.131 28.0292 477.897 31.542C477.585 36.2371 477.369 42.1014 471.143 41.5308C465.172 40.9837 468.391 31.174 468.898 27.0596C469.278 23.9694 467.996 17.4786 472.596 16.5938Z" fill="#894A23"/>
<path d="M580.757 173.404C586.866 175.148 597.441 166.135 602.621 168.601C603.8 169.162 605.438 171.894 603.728 172.928C591.509 180.314 564.753 192.84 573.043 165.722C567.111 166.269 561.074 164.673 561.429 157.694C561.837 149.67 575.131 140.431 580.756 135.291C580.963 133.957 580.576 134.525 579.875 134.268C577.573 133.425 573.18 133.388 573.359 129.787C573.815 120.594 582.725 126.094 588.744 125.314C593.45 124.705 601.072 118.876 605.404 120.352C611.819 127.998 599.263 130.558 594.062 133.819C589.396 136.745 571.854 150.77 570.751 155.448C569.933 158.917 576.814 157.064 578.814 156.415C583.989 154.735 591.445 147.105 594.618 146.528C597.961 145.92 600.398 147.792 600.044 151.249C599.411 157.417 579.249 164.217 580.757 173.404Z" fill="#894A23"/>
<path d="M648.066 158.868C651.946 163.232 649.517 170.635 645.006 173.68C641.267 176.204 631.262 177.484 628.05 174.007C620.568 165.908 640.635 150.512 648.066 158.868ZM639.103 162.026C638.145 162.279 634.31 165.311 634.17 166.129C639.786 177.383 649.089 159.391 639.103 162.026Z" fill="#894A23"/>
</svg>
