<svg width="100" height="100" viewBox="0 0 100 100" fill="none" xmlns="http://www.w3.org/2000/svg">
<g clip-path="url(#clip0_602_4212)">
<path d="M16.1973 49.8418C16.1973 42.5533 18.5211 35.793 22.4578 30.2649L12.1117 19.9186L10.933 18.7346C10.9322 18.736 10.9314 18.7367 10.9307 18.7375L10.9084 18.7155C4.08477 27.2573 0 38.0887 0 49.8418C0 61.5955 4.08477 72.4264 10.9084 80.969L22.4578 69.4194C18.5211 63.8912 16.1973 57.1309 16.1973 49.8418Z" fill="#FF8426"/>
<path d="M69.5791 77.3846C65.502 80.2854 60.7625 82.3139 55.6357 83.1731C53.8047 83.4829 51.9248 83.6446 50.0022 83.6446C48.0795 83.6446 46.1988 83.4827 44.3686 83.1731C39.2416 82.3141 34.5023 80.2854 30.4313 77.3846L20.0996 87.7163L18.8949 88.9157C18.8957 88.9173 18.8965 88.9173 18.898 88.918L18.875 88.9409C26.0375 94.6593 34.7975 98.4479 44.3686 99.5251C46.2203 99.7364 48.101 99.8419 50.0022 99.8419C51.9033 99.8419 53.784 99.7366 55.6357 99.5251C64.8176 98.4913 73.2451 94.9413 80.2398 89.6069C80.5289 89.3878 80.8295 89.188 81.1133 88.963L81.1104 88.9591C81.1188 88.953 81.1279 88.9469 81.1363 88.9407L69.5791 77.3846ZM26.1205 88.3245L31.092 83.353C34.9723 85.5464 39.2287 87.0647 43.5859 87.7948C45.6939 88.151 47.8522 88.3319 50.0022 88.3319C52.1522 88.3319 54.3104 88.151 56.4109 87.7956C60.7719 87.0647 65.032 85.5456 68.9178 83.3514L73.0094 87.443L73.8898 88.3333C68.2035 91.8764 61.8004 94.1141 55.1047 94.868C53.4369 95.0579 51.7203 95.1542 50.0022 95.1542C48.2832 95.1542 46.5666 95.0579 44.8928 94.8665C38.6756 94.1669 32.7133 92.1678 27.3354 89.0436C26.9293 88.8059 26.5205 88.5762 26.1205 88.3245Z" fill="#FF8426"/>
<path d="M30.4244 22.2997C34.4947 19.3983 39.2342 17.3704 44.3686 16.5112V1.80398L44.3717 0.189526L44.3693 0.190308L44.3686 0.159058C35.1936 1.19128 26.7799 4.73679 19.7883 10.0641C19.4938 10.287 19.1871 10.4915 18.8973 10.7212L18.9002 10.7241C18.8926 10.7309 18.8834 10.7362 18.875 10.7432L30.4244 22.2997Z" fill="#FF8426"/>
<path d="M89.0975 18.7153C86.7523 15.7711 84.0768 13.0954 81.1332 10.7432C74.4201 5.38364 66.2863 1.74985 57.4127 0.424658C56.8299 0.3354 56.2508 0.227002 55.6641 0.158447V0.163721C55.6535 0.162158 55.6434 0.16001 55.6328 0.159229V16.5112C60.7598 17.3702 65.499 19.3983 69.5762 22.2997C72.6539 24.4901 75.3508 27.187 77.548 30.2649C81.485 35.7932 83.802 42.5536 83.802 49.8418C83.802 57.1309 81.485 63.8915 77.548 69.4196L89.0975 80.9758C95.9213 72.4262 99.9992 61.6024 99.9992 49.8418C99.9992 38.0887 95.9213 27.2573 89.0975 18.7153Z" fill="#FF8426"/>
<path d="M25.8281 43.7336V66.5424H39.7709V43.7336H25.8281ZM35.0834 61.8549H30.5156V48.4211H35.0834V61.845V61.8549Z" fill="#FF8426"/>
<path d="M43.0625 27.145H43.0312V66.5423H56.9746V27.145H43.1051H43.0625ZM47.7188 61.855V31.8325H52.2871V61.8548L47.7188 61.855Z" fill="#FF8426"/>
<path d="M74.1701 35.439H60.3006H60.258H60.2266V66.5425H74.1701V35.439ZM69.4826 40.1265V61.855H64.9141V40.1265H69.4826Z" fill="#FF8426"/>
</g>
<defs>
<clipPath id="clip0_602_4212">
<rect width="100" height="100" fill="white"/>
</clipPath>
</defs>
</svg>
