<svg width="100" height="100" viewBox="0 0 100 100" fill="none" xmlns="http://www.w3.org/2000/svg">
<path d="M50 91L65.375 57.6875M42.3125 34.625L9 50M32.0625 57.6875C32.0625 57.6875 24.6153 62.5721 19.25 67.9375C14.125 73.0625 9 91 9 91C9 91 26.9375 85.875 32.0625 80.75C37.1875 75.625 42.3125 67.9375 42.3125 67.9375M32.0625 57.6875C32.0625 57.6875 37.7 36.675 50 24.375C65.375 9 91 9 91 9C91 9 91 34.625 75.625 50C66.6521 58.9728 42.3125 67.9375 42.3125 67.9375M32.0625 57.6875L42.3125 67.9375M70.5 37.1875C70.5 41.433 67.0581 44.875 62.8125 44.875C58.5669 44.875 55.125 41.433 55.125 37.1875C55.125 32.9418 58.5669 29.5 62.8125 29.5C67.0581 29.5 70.5 32.9418 70.5 37.1875Z" stroke="#FF8426" stroke-width="7"/>
</svg>
