<svg width="100" height="100" viewBox="0 0 100 100" fill="none" xmlns="http://www.w3.org/2000/svg">
<g clip-path="url(#clip0_603_4548)">
<path d="M64.4158 56.1301C64.2974 56.5544 64.1617 56.9778 64.0092 57.402L63.9412 57.6049C63.5682 58.6905 63.0088 59.6389 62.4666 60.4018C63.0601 60.7741 63.7889 61.1983 64.6699 61.6393L64.8904 61.7577C71.5181 65.1313 74.5691 66.7418 76.0103 68.0633C77.4851 69.4192 78.9255 71.6231 80.0449 74.25C80.0617 74.2844 80.0785 74.3178 80.0952 74.3697C86.8251 73.9959 92.9942 73.0803 98.2325 71.724C99.4356 71.4197 100.182 70.25 99.9614 69.0293C99.1815 64.6737 97.1643 61.1481 95.7575 59.8587C94.6558 58.8592 89.7401 56.3676 85.5364 54.2321C82.4687 52.6552 80.7566 51.2825 80.2646 50.8415V46.7224C80.4851 46.6376 80.7056 46.4683 80.9093 46.2478C81.5365 45.5536 82.0613 44.7569 82.3161 44.0276C82.8753 42.4851 83.3331 40.621 83.4009 40.129C83.4177 40.0779 83.4177 40.045 83.4177 39.9933C83.6374 40.0611 83.8587 40.0954 84.0273 40.0954C86.2482 40.0954 87.147 35.5697 87.2819 34.3658C87.4177 33.1619 86.3503 32.3494 85.9597 32.0265C86.0444 31.8404 86.1466 31.5519 86.2482 31.23C86.4687 30.5525 86.8249 29.5347 87.0614 27.7724C87.3163 25.84 86.7228 23.5343 85.5196 22.1113C83.9937 20.297 81.5867 18.534 80.5872 18.534C78.9935 15.6523 76.9427 13.7877 73.1455 13.5168C72.9084 13.5168 72.6878 13.5168 72.4337 13.5H72.3826C69.23 13.5 63.7209 16.4832 61.5687 20.348C60.8904 21.5855 60.3648 22.6529 60.0262 23.6867C59.8902 24.0941 59.7721 24.5 59.6875 24.9074C60.0598 25.3308 60.4328 25.8054 60.7715 26.2966C62.331 27.0939 63.7555 28.2634 64.8402 29.315C65.1789 29.6369 65.5857 30.0603 65.9922 30.5181L66.2295 30.7888C67.0435 31.7722 67.7041 32.9251 68.1619 34.1962C68.6531 35.4337 68.9416 36.8909 68.9927 38.3146C69.0263 39.0273 68.9927 39.7734 68.8914 40.4509C68.7892 41.1972 68.6709 41.8921 68.5351 42.4849C68.5008 42.6542 68.4672 42.8075 68.4336 42.9595C69.1621 44.4175 69.2636 45.7899 69.1455 46.8757C68.7722 50.3677 67.3318 54.3167 64.4158 56.1301Z" fill="#FF8426"/>
<path d="M19.9383 74.2844C21.091 71.5721 22.5482 69.3688 24.0406 68.0297C25.4301 66.7588 28.4808 65.1313 35.1093 61.7577L35.3123 61.6393C36.1187 61.2272 36.7962 60.8358 37.3668 60.4956C37.3988 60.478 37.4416 60.4538 37.4736 60.437C37.4736 60.437 37.4728 60.4354 37.472 60.4338C37.4796 60.4294 37.4904 60.4233 37.4988 60.4186C36.8548 59.5383 36.3461 58.5708 36.0072 57.6049C36.0072 57.6049 35.5158 56.1645 35.5158 56.1301C33.024 54.554 31.3623 51.1977 30.8879 46.5362C30.7865 45.4513 30.8711 44.1132 31.5662 42.7566C31.515 42.5017 31.3969 41.6038 31.3969 41.6038C31.1595 39.8917 31.1428 38.4003 31.3457 36.9255C31.3693 36.7072 31.4082 36.49 31.4449 36.2724C31.4777 36.0802 31.515 35.8925 31.5578 35.7072C31.6066 35.4904 31.6541 35.274 31.7189 35.0609C31.973 34.0271 32.3629 32.9933 32.922 31.8062C33.2103 31.1792 33.549 30.5527 33.9222 29.857C33.939 29.8402 33.939 29.8234 33.9566 29.8066V29.6197L34.9392 28.2638C36.2445 26.4847 38.0412 24.8566 40.0242 23.5511C39.8037 23.0773 39.5496 22.6195 39.2277 22.2297C39.2109 22.1785 39.1765 22.1441 39.1429 22.1113C37.6177 20.297 35.1941 18.534 34.2105 18.534C32.6 15.6523 30.5492 13.7877 26.7519 13.5168C26.5314 13.5168 26.2943 13.5168 26.057 13.5H26.0066C22.8533 13.5 17.3449 16.4832 15.192 20.348C13.0565 24.2125 12.5653 26.3812 13.6494 31.2298C13.7686 31.5517 13.8532 31.8402 13.9545 32.0263C13.5815 32.3492 12.6323 32.874 12.7514 34.0603C12.8698 35.2642 13.6494 40.095 15.8533 40.095C16.0518 40.095 16.2678 40.0599 16.4828 39.995C16.4881 39.9943 16.4918 39.9943 16.4973 39.9937C16.5315 40.3843 16.7344 41.4683 17.1412 42.5692C17.277 42.9591 17.4463 43.4673 17.6324 43.9929C17.8865 44.7392 18.4121 45.5698 19.0569 46.2649C19.2598 46.4679 19.4803 46.6372 19.7176 46.722V50.8411C19.2262 51.2821 17.4967 52.6548 14.4465 54.2317C10.2426 56.3673 5.34381 58.8764 4.24225 59.8583C2.83542 61.1477 0.801242 64.6733 0.0385489 69.0289C-0.181958 70.2496 0.563352 71.4192 1.76725 71.7237C6.98794 73.0633 13.1922 73.9787 19.9037 74.3693C19.9215 74.3346 19.9215 74.3178 19.9383 74.2844Z" fill="#FF8426"/>
<path d="M42.9042 62.7831C42.4183 63.2318 40.6819 64.605 37.6286 66.1698C33.4308 68.3167 28.5267 70.8161 27.4396 71.8087C26.5904 72.5716 25.5214 74.1561 24.6343 76.2352C24.4435 76.6936 24.2527 77.1706 24.0812 77.6765C23.9187 78.1333 23.7668 78.6102 23.6425 79.1069C23.4709 79.7081 23.3375 80.3276 23.2228 80.9677C23.013 82.1884 23.7568 83.3618 24.9494 83.6676C31.9425 85.4507 40.6148 86.5104 50.0128 86.5104C59.3999 86.5104 68.0631 85.4507 75.0469 83.6776C76.2486 83.3718 76.9932 82.1884 76.7734 80.9677C76.659 80.3274 76.5164 79.7079 76.3539 79.1069C76.2203 78.6102 76.077 78.1333 75.9051 77.6765C75.7434 77.1706 75.5527 76.6936 75.352 76.2352C74.4738 74.1561 73.4057 72.5815 72.5566 71.8087C71.4695 70.8062 66.5461 68.3075 62.3477 66.1698C59.286 64.596 57.5586 63.2318 57.0629 62.7831V60.1304V58.6716C57.2917 58.5853 57.5108 58.4228 57.7212 58.1939C57.7594 58.1558 57.7975 58.1177 57.8256 58.0695C58.4079 57.4126 58.8846 56.6673 59.1235 55.9714C59.1518 55.8853 59.1807 55.7992 59.209 55.7128C59.7338 54.2252 60.1344 52.5461 60.2116 52.0691C60.2207 52.0211 60.2208 51.9828 60.2299 51.9447C60.4497 52.0119 60.6594 52.04 60.8411 52.04C63.0543 52.04 63.9608 47.5082 64.0844 46.3158C64.2188 45.1141 63.1498 44.2939 62.7584 43.9787C62.8448 43.7873 62.9498 43.5019 63.0543 43.1678C63.0643 43.1486 63.0735 43.1197 63.0834 43.0916C63.2162 42.6811 63.4069 42.1271 63.5793 41.3551C63.6838 40.8967 63.7791 40.3525 63.8655 39.7141C63.9227 39.3234 63.9319 38.9022 63.9127 38.4934C63.8844 37.6344 63.703 36.7477 63.3885 35.936C63.1307 35.2301 62.7682 34.5817 62.3295 34.0561L62.3196 34.0469C62.0145 33.6846 61.6711 33.3129 61.3081 32.978C59.8774 31.5948 58.1891 30.4785 57.3963 30.4785C55.7944 27.5977 53.7428 25.727 49.9456 25.4698C49.7167 25.4608 49.4878 25.4608 49.2397 25.4514H49.1917C46.3298 25.4514 41.5021 27.912 39.0407 31.2703C39.0407 31.2795 39.0407 31.2795 39.0407 31.2795C38.7927 31.6145 38.5732 31.9578 38.3823 32.301C38.0581 32.8914 37.762 33.4453 37.514 33.9703C37.1136 34.8194 36.8083 35.6113 36.6175 36.4026C36.5023 36.7748 36.4267 37.157 36.3878 37.5484C36.2261 38.6547 36.2544 39.8281 36.4741 41.2402V41.2494C36.5605 41.8322 36.6747 42.4609 36.8275 43.1385C36.8364 43.1482 36.8364 43.1582 36.8364 43.1674C36.9509 43.5016 37.0462 43.7869 37.1517 43.9783C36.7702 44.2935 35.8257 44.8183 35.9402 46.0099C36.0638 47.2117 36.8366 52.0394 39.0499 52.0394C39.2507 52.0394 39.4605 52.0113 39.6886 51.9441C39.6894 51.9441 39.6894 51.9441 39.6894 51.9441C39.7282 52.3263 39.9282 53.4134 40.3386 54.5197C40.453 54.8441 40.5858 55.2545 40.7292 55.6834C40.7583 55.7703 40.7866 55.8466 40.8155 55.932C41.0544 56.6195 41.5023 57.364 42.0651 58.0027C42.1224 58.0691 42.1896 58.1363 42.2468 58.2035C42.4565 58.4224 42.6757 58.5849 42.9044 58.671V60.1015L42.9042 62.7831Z" fill="#FF8426"/>
</g>
<defs>
<clipPath id="clip0_603_4548">
<rect width="100" height="100" fill="white"/>
</clipPath>
</defs>
</svg>
