<svg width="140" height="100" viewBox="0 0 140 100" fill="none" xmlns="http://www.w3.org/2000/svg">
<g clip-path="url(#clip0_444_2615)">
<g clip-path="url(#clip1_444_2615)">
<path d="M29.9803 45.0642C29.9855 45.0607 29.9912 45.0583 29.9972 45.0549L29.9988 45.0937C35.7668 41.4322 42.1403 38.6005 48.9615 36.6483C49.1174 36.597 49.2894 36.5624 49.4455 36.5101C49.0653 32.7112 49.6183 29.0843 51.0343 24.1453C51.1895 23.5406 51.6904 23.0922 52.2772 23.023C66.6634 21.2782 74.3311 21.2782 88.735 23.023C89.322 23.0922 89.7881 23.5408 89.9609 24.1453C91.3945 29.0843 91.93 32.7112 91.5498 36.5101C91.7049 36.5455 91.8777 36.5793 92.033 36.6314C98.8895 38.6005 105.245 41.4322 111.013 45.0937L112.706 12.488C112.879 9.2761 110.651 6.6333 107.749 6.6333H33.2453C30.3446 6.6333 28.1335 9.2761 28.3064 12.488L29.4389 34.3099L29.9803 45.0642Z" fill="#FF8426"/>
<path d="M25.9371 69.4095L19.5266 69.4077V69.4095H19.4922L21.2317 95.0827C21.2806 95.7985 21.903 96.367 22.5844 96.367H32.368C33.0494 96.367 33.5883 95.7985 33.5521 95.0827L32.9347 82.9321C32.8977 82.2077 33.4475 81.6166 34.159 81.6166H106.848C107.56 81.6166 108.11 82.2077 108.073 82.9321L107.456 95.0827C107.418 95.7985 107.958 96.367 108.656 96.367H118.423C119.12 96.367 119.727 95.7985 119.776 95.0827L121.402 71.069L121.515 69.4439H121.513L121.515 69.4093H25.9371V69.4095Z" fill="#FF8426"/>
<path d="M20.9957 64.137H120.005C121.631 64.137 122.619 62.0963 121.563 60.867C118.438 57.2443 114.779 53.9682 110.704 51.1043C104.819 46.9807 98.0363 43.7469 90.6097 41.6134C84.2901 39.8079 77.5307 38.8457 70.5088 38.8457C63.47 38.8457 56.7104 39.8077 50.3918 41.6319C42.9812 43.7469 36.1989 46.9807 30.3136 51.1043C26.2222 53.9682 22.5633 57.2443 19.4371 60.867C18.3817 62.0963 19.3691 64.137 20.9957 64.137Z" fill="#FF8426"/>
</g>
</g>
<defs>
<clipPath id="clip0_444_2615">
<rect width="140" height="100" fill="white"/>
</clipPath>
<clipPath id="clip1_444_2615">
<rect width="103" height="103" fill="white" transform="translate(19)"/>
</clipPath>
</defs>
</svg>
