<svg width="140" height="100" viewBox="0 0 140 100" fill="none" xmlns="http://www.w3.org/2000/svg">
<g clip-path="url(#clip0_444_2631)">
<g clip-path="url(#clip1_444_2631)">
<path d="M34.714 73.9974C35.2153 78.3126 36.6825 82.0167 38.9316 84.9864C40.6061 87.2239 42.6963 89.0453 45.0311 90.4998C48.5399 92.6632 52.598 94.0321 56.9256 94.876C61.2524 95.7067 65.8486 96.0247 70.5063 96.0247C74.6255 96.0247 78.7205 95.7805 82.6197 95.1321C88.4623 94.1544 93.9026 92.3204 98.2177 88.9224C100.368 87.2235 102.227 85.1206 103.609 82.6271C105.002 80.1211 105.906 77.2363 106.285 73.9972C106.676 70.6598 106.995 67.0292 107.275 63.3752C117.825 62.323 121.566 59.9645 121.944 54.2673L121.969 53.8766C122.347 49.6591 119.255 45.283 114.928 43.9021C114.536 43.7794 114.145 43.6812 113.754 43.608C112.679 43.4131 110.833 43.2049 109.207 43.0453C109.121 43.1562 109.036 43.2535 108.95 43.3511C108.767 43.5593 108.571 43.7675 108.375 43.9623C108.119 44.2318 107.85 44.4755 107.569 44.7334C107.141 45.112 106.689 45.4781 106.224 45.8201L105.699 46.224L105.662 46.2611L105.613 46.2854C105.442 46.4073 105.32 46.5055 105.198 46.5912C105.149 46.6147 105.112 46.6399 105.063 46.6769C105.051 46.6769 105.026 46.6893 105.014 46.7012L103.56 47.6176L103.499 47.6544L103.449 47.6787L102.251 48.3514L102.203 48.3876L102.142 48.412L102.056 48.4615L100.87 49.0358C100.406 49.2802 99.9414 49.4758 99.4644 49.6832L98.9755 49.8914C98.6454 50.025 98.3153 50.172 97.961 50.2945L97.3134 50.539C96.6777 50.7832 95.9563 51.0528 95.1989 51.2847L92.6197 52.0548L92.5829 52.0673L92.5585 52.0789C85.8837 53.9006 78.6966 54.7932 70.5308 54.8294C62.3653 54.805 55.1772 53.9006 48.5277 52.0914C44.7746 51.0526 41.6824 49.8785 38.9444 48.4484C38.4918 48.204 38.0392 47.9722 37.6117 47.7151C37.2572 47.5194 36.8903 47.2868 36.5115 47.0424L36.4869 47.0181L36.4626 47.0064L35.9367 46.6393L35.7899 46.5419L34.9099 45.9179L34.8737 45.9062L34.8494 45.8816C34.3479 45.5022 33.8836 45.1232 33.4434 44.733C33.1622 44.4877 32.8934 44.219 32.6365 43.9619C32.4534 43.7788 32.282 43.6074 32.1233 43.4245C32.0133 43.3018 31.9032 43.1801 31.805 43.0449H31.7932C30.1792 43.2045 28.334 43.4127 27.2455 43.6076C26.8542 43.6806 26.4637 43.779 26.0723 43.9017C21.7573 45.2824 18.6526 49.6586 19.0312 53.8762L19.0674 54.2669C19.4469 59.9641 23.175 62.3224 33.7246 63.3747C33.9932 67.0296 34.3233 70.6602 34.714 73.9974ZM32.868 49.2322C32.8932 49.8311 32.9294 50.4422 32.9662 51.0654C31.5729 50.9556 29.5801 50.7969 28.8714 50.7842C28.4682 50.7842 28.0526 50.7599 27.7098 50.7842C27.2085 50.8212 26.8053 50.9556 26.744 51.4444C26.7323 51.5672 26.744 51.714 26.7685 51.8971C26.9397 52.8991 28.5774 54.598 33.1493 54.452C33.235 56.1509 33.345 57.9111 33.4675 59.6714C22.2946 58.4613 22.8933 55.9435 22.6733 53.5594C22.4775 51.1759 24.3973 48.2786 27.1966 47.3983C27.4284 47.3253 27.6609 47.2639 27.9053 47.2152C29.0055 47.0195 31.1446 46.7996 32.7578 46.6531C32.7831 47.4844 32.8192 48.3394 32.868 49.2322ZM55.6296 59.635C58.3801 61.223 59.3213 64.7319 57.7319 67.4823C56.1428 70.2208 52.635 71.1615 49.8962 69.5843C47.1458 67.9955 46.2051 64.4874 47.794 61.737C49.3704 58.9991 52.8909 58.0578 55.6296 59.635ZM107.545 59.671C107.667 57.9107 107.764 56.1505 107.862 54.4516C112.434 54.5976 114.072 52.8987 114.243 51.8967C114.267 51.7136 114.28 51.5668 114.255 51.444C114.194 50.9552 113.803 50.8208 113.29 50.7838C112.947 50.7595 112.544 50.7838 112.141 50.7838C111.419 50.7965 109.451 50.9552 108.045 51.065C108.082 50.4418 108.119 49.8306 108.144 49.2318C108.192 48.339 108.229 47.484 108.253 46.6525C109.867 46.7988 112.006 47.0189 113.094 47.2146C113.338 47.2633 113.57 47.3245 113.803 47.3977C116.602 48.2778 118.533 51.1753 118.325 53.5588C118.105 55.9431 118.692 58.4484 107.545 59.671Z" fill="#FF8426"/>
<path d="M32.4771 39.8195C32.8802 40.5039 33.3691 41.1642 33.9315 41.7874C34.2373 42.1175 34.5548 42.4476 34.9092 42.7657C35.1543 42.9858 35.3981 43.2057 35.6676 43.4259C35.6793 43.4259 35.692 43.4384 35.7045 43.4503C35.8994 43.609 36.0951 43.7559 36.3033 43.9148L37.8552 45.0023C38.1853 45.2232 38.5154 45.4306 38.7967 45.5775C38.7967 45.5775 38.8091 45.5775 38.8091 45.5891C41.6939 47.252 44.9819 48.5713 49.1749 49.7454C55.6048 51.4931 62.5961 52.3614 70.5416 52.3859C78.4627 52.3489 85.4424 51.4813 91.9091 49.7212L94.4883 48.9387C95.1483 48.7429 95.7967 48.4985 96.4441 48.2543L97.1168 48.0098C97.4099 47.9 97.7155 47.7656 98.0088 47.6437L98.5101 47.4228C98.9384 47.2522 99.3659 47.0684 99.7447 46.8608L101.053 46.2251L102.189 45.5893L102.251 45.5531L103.705 44.6235C103.852 44.5378 103.999 44.4405 104.206 44.2934L104.732 43.8903C104.928 43.7442 105.111 43.5971 105.294 43.4628C105.307 43.4384 105.32 43.4384 105.331 43.4259C105.6 43.2059 105.857 42.9858 106.101 42.7657C106.468 42.4348 106.798 42.0805 107.116 41.726C107.666 41.1147 108.143 40.4798 108.522 39.8195C108.742 39.4896 108.925 39.147 109.084 38.7926C109.659 37.5706 109.964 36.2377 109.964 34.9787C109.989 33.7073 109.695 32.3746 109.121 31.1164C108.656 30.0768 108.009 29.1236 107.14 28.1703C105.844 26.752 104.255 25.5291 102.251 24.4172L101.859 24.2098C101.566 24.0503 101.285 23.8916 100.979 23.7572L99.696 23.146L99.4273 23.0368C99.109 22.9016 98.7791 22.7555 98.449 22.6328C97.6789 22.0339 96.8482 21.4713 95.9798 20.9337C95.3928 20.5668 94.7822 20.2242 94.1465 19.8824C94.1338 19.8824 94.1095 19.8699 94.0978 19.8699C92.4476 18.9906 90.6622 18.2205 88.743 17.5478C88.3769 17.4134 87.9981 17.2909 87.6185 17.1817H87.6068C85.4921 16.4838 83.2424 15.9346 80.8957 15.5315C81.0057 15.1032 81.0671 14.6505 81.0671 14.1862C81.0671 13.7714 81.0184 13.3429 80.9202 12.9146C80.0888 9.35809 75.8964 6.97461 70.5056 6.97461C67.4981 6.97461 64.6746 7.75636 62.7556 9.13801C60.9342 10.4456 59.9314 12.2429 59.9314 14.1862C59.9314 14.6389 59.9927 15.0915 60.1028 15.5315C57.7068 15.9463 55.4334 16.5089 53.2818 17.206C51.0084 17.9393 48.8937 18.8319 46.9622 19.8339C46.9379 19.8456 46.9254 19.8583 46.9009 19.8699H46.8884C45.3247 20.7014 43.8819 21.6058 42.5986 22.6087H42.5861C41.119 23.1957 39.8241 23.8063 38.65 24.479C36.658 25.5917 35.0682 26.8263 33.7849 28.2437C32.9542 29.1608 32.3061 30.1627 31.8416 31.2015C31.2789 32.4486 30.9976 33.7932 31.0345 35.0522C31.0471 36.3238 31.3646 37.6439 31.9635 38.8909C32.1101 39.2084 32.2813 39.514 32.4771 39.8195ZM62.4259 18.9779V22.6328L64.0391 23.3669L64.5891 23.6103C65.2365 23.9044 65.9462 24.1487 66.6912 24.3325C66.7038 24.3325 66.7038 24.3325 66.7038 24.3325C66.9607 24.4047 67.2052 24.4544 67.4614 24.5029C68.4886 24.7103 69.5643 24.8212 70.6518 24.8212C71.7402 24.8212 72.816 24.7103 73.8422 24.5154C74.075 24.4659 74.3067 24.4172 74.5393 24.3559C75.3094 24.1609 76.0426 23.9159 76.7278 23.6101L77.2167 23.39L78.8788 22.6324V18.9166C81.9836 19.3692 84.9055 20.0906 87.5332 21.0196C92.4227 22.7185 96.3226 25.1515 98.7304 27.8524C98.963 28.1095 99.183 28.3781 99.3906 28.6342C99.9036 29.2944 100.332 29.9671 100.662 30.6521H100.674C101.078 31.4468 101.359 32.2531 101.505 33.0724C101.53 33.1211 101.53 33.1817 101.542 33.2314C101.628 33.7327 101.677 34.2332 101.677 34.7347C101.677 35.2477 101.628 35.7611 101.542 36.2624C101.542 36.2624 101.542 36.2624 101.53 36.2749C101.53 36.2749 101.53 36.2866 101.518 36.2992H101.53C101.395 37.045 101.163 37.7791 100.821 38.5113C100.625 38.6702 100.418 38.8296 100.185 38.9883C100.161 39.0128 99.4763 39.4653 99.4763 39.4653C96.9703 41.0541 93.4012 42.4969 89.1222 43.5728C83.8053 44.9172 77.3875 45.7119 70.506 45.6992C63.611 45.7117 57.194 44.9172 51.8763 43.5728C47.5981 42.4969 44.0406 41.0541 41.5348 39.4653C41.5348 39.4653 40.6428 38.8658 40.5203 38.7809C40.4103 38.6952 40.2886 38.5978 40.1785 38.4997H40.166C39.8359 37.7791 39.6042 37.0452 39.469 36.2992C39.469 36.2868 39.4571 36.2868 39.4571 36.2749C39.3714 35.7611 39.3229 35.2477 39.3229 34.7347C39.3229 34.2332 39.3716 33.7327 39.469 33.2314C39.469 33.1819 39.4815 33.133 39.4941 33.0845C39.6529 32.2531 39.9341 31.4468 40.3499 30.6397C40.8144 29.6984 41.462 28.7694 42.2808 27.8524C43.8336 26.1046 45.997 24.4788 48.6617 23.0849C52.3897 21.1297 57.0842 19.6509 62.3281 18.8924C62.3521 18.9166 62.3889 18.9536 62.4259 18.9779ZM66.0927 18.5621V18.4647V18.159C66.4228 18.2565 66.7527 18.3304 67.1072 18.3909H67.1197C67.4128 18.4647 67.7183 18.5134 68.0241 18.5496C68.0609 18.5621 68.1098 18.5621 68.1466 18.5621C68.8916 18.6722 69.687 18.7208 70.5058 18.7208C71.3489 18.7208 72.156 18.6603 72.9261 18.5496H72.9748C73.2679 18.501 73.561 18.4523 73.8547 18.4036C73.8547 18.4036 73.8547 18.4036 73.8666 18.4036C74.3309 18.306 74.7835 18.1954 75.2118 18.0735V18.4891V18.5496V20.262C74.6004 20.5424 73.9034 20.7625 73.1333 20.9094C72.3632 21.0681 71.5318 21.1538 70.6516 21.1538C69.784 21.1538 68.9401 21.0681 68.1708 20.9094C67.3999 20.7625 66.7036 20.5424 66.0923 20.262V18.5621H66.0927ZM77.3999 14.186C77.3999 14.4673 77.3386 14.736 77.2169 15.0048C77.0211 15.4085 76.691 15.7873 76.251 16.1175C76.0066 16.3249 75.7127 16.5087 75.3828 16.6675C75.2852 16.7286 75.1879 16.7773 75.077 16.8262C74.9913 16.863 74.9066 16.8876 74.8207 16.9119C74.2337 17.095 73.5737 17.2302 72.8766 17.3275C72.8523 17.34 72.8279 17.34 72.8036 17.34C72.0822 17.4492 71.3121 17.4989 70.5058 17.4989C69.6987 17.4989 68.9161 17.4494 68.1953 17.34H68.1585C67.3639 17.2302 66.6308 17.0588 65.9824 16.8511C65.9581 16.8511 65.9464 16.8387 65.9211 16.826C65.7992 16.7773 65.6769 16.7284 65.5666 16.6673H65.5549C65.2367 16.4959 64.9806 16.3247 64.7362 16.1297C64.2962 15.7871 63.9661 15.4083 63.7822 14.9925C63.6603 14.7356 63.5992 14.4669 63.5992 14.1856C63.5992 13.4155 64.0759 12.7066 64.8949 12.1196C66.1414 11.2276 68.1829 10.6406 70.5058 10.6406C74.0263 10.6406 76.9354 11.9977 77.3511 13.7579C77.3754 13.8927 77.3999 14.039 77.3999 14.186Z" fill="#FF8426"/>
</g>
</g>
<defs>
<clipPath id="clip0_444_2631">
<rect width="140" height="100" fill="white"/>
</clipPath>
<clipPath id="clip1_444_2631">
<rect width="103" height="103" fill="white" transform="translate(19)"/>
</clipPath>
</defs>
</svg>
