<svg width="140" height="100" viewBox="0 0 140 100" fill="none" xmlns="http://www.w3.org/2000/svg">
<g clip-path="url(#clip0_444_2638)">
<path d="M114.331 29.1565C116.706 29.1565 118.634 27.2092 118.634 24.8124V10.8106C118.634 8.42795 116.706 6.4806 114.331 6.4806H108.88H103.494H101.788V29.1565H103.494V34.5928H100.861V57.2592H103.494V62.7033H101.794V85.3681H103.494V91.1991C103.494 93.1776 101.9 94.787 99.9395 94.787H30.388C28.4277 94.787 26.8339 93.1776 26.8339 91.1991V88.8965H94.3932C96.4009 88.8965 98.0431 87.2384 98.0431 85.211V1.68547C98.0431 -0.343551 96.4011 -2 94.3932 -2H25.0169C23.0091 -2 21.3672 -0.343551 21.3672 1.68547V97.2013C21.3672 99.2933 23.0568 101 25.129 101H105.119C107.191 101 108.88 99.2933 108.88 97.2013V85.3683H112.743C115.113 85.3683 117.034 83.4288 117.034 81.0353V67.0366C117.034 64.643 115.113 62.7035 112.743 62.7035H108.88V57.2592H113.404C115.773 57.2592 117.695 55.3181 117.695 52.9262V38.9258C117.695 36.5339 115.773 34.5928 113.404 34.5928H108.88V29.1565H114.331ZM104.975 25.9377V9.69935H108.88H114.331C114.953 9.69935 115.447 10.1993 115.447 10.8106V24.8126C115.447 25.4237 114.953 25.9379 114.331 25.9379H108.88H104.975V25.9377Z" fill="#FF8426"/>
</g>
<defs>
<clipPath id="clip0_444_2638">
<rect width="140" height="100" fill="white"/>
</clipPath>
</defs>
</svg>
