<svg width="140" height="100" viewBox="0 0 140 100" fill="none" xmlns="http://www.w3.org/2000/svg">
<g clip-path="url(#clip0_444_2644)">
<path d="M89.216 1.28711C78.6863 1.28711 69.3681 6.4705 63.5854 14.4371C60.9122 13.7063 58.1037 13.3101 55.205 13.3101C42.3265 13.3101 30.5656 21.2391 25.5844 33.1594L25.5447 33.2018L25.1549 34.2383C25.1246 34.3175 25.0949 34.397 25.0662 34.4771L24.7915 35.2065V35.2552C24.1534 37.1412 23.6896 39.0907 23.4047 41.0767L23.3828 41.1224L23.2358 41.81L19.9541 57.4235L19 61.9618L23.2055 63.8282L29.7082 66.7152V71.7069C29.7082 76.8374 33.8404 81.0119 38.9173 81.0119C39.1508 81.0119 39.3857 81.0041 39.6191 80.9852L47.4144 80.7015L47.6682 80.6937V92.0096V97.6629V97.6802V97.7132H53.3156H53.4097H54.9086L56.2089 96.9637L75.8708 85.6328L78.719 83.9913V80.6798V68.4966L86.3889 68.2178L86.9501 68.1981V88.8701H87.0629L110.653 75.2753V57.0733C110.992 56.7599 111.327 56.4414 111.652 56.1137C117.429 50.3055 121 42.2688 121 33.3819C121 15.6544 106.772 1.28711 89.216 1.28711ZM53.3154 91.9913V74.7808L39.2781 75.2908C39.1568 75.3033 39.0362 75.3089 38.9171 75.3089C36.9739 75.3089 35.3553 73.7144 35.3553 71.7067V62.9926L25.4784 58.6076L26.3291 54.5612L28.8295 43.0254C28.8302 43.0222 28.8303 43.0192 28.8303 43.016L28.8559 43.0277C29.0932 40.6695 29.6293 38.4023 30.4342 36.2641C30.4387 36.2594 30.4387 36.254 30.4387 36.254C31.8381 32.5392 34.0378 29.2263 36.8169 26.5169C36.8731 26.4626 36.9251 26.4036 36.9819 26.3501C37.266 26.0783 37.5664 25.8244 37.8628 25.5651C38.0816 25.3734 38.2941 25.1739 38.5191 24.9908C38.691 24.8494 38.8725 24.7212 39.0482 24.5846C39.4078 24.3072 39.7658 24.025 40.1377 23.765C40.2226 23.7061 40.3128 23.6542 40.3977 23.5953C40.8639 23.2778 41.3346 22.969 41.8195 22.6815C41.8717 22.6508 41.9269 22.624 41.9791 22.5942C42.4935 22.2931 43.0162 22.0064 43.5509 21.7409C43.6738 21.6795 43.8015 21.6278 43.9258 21.5695C44.3858 21.3494 44.8482 21.1349 45.3212 20.9416C45.7314 20.775 46.1515 20.629 46.5719 20.4819C46.7587 20.4165 46.9408 20.3419 47.1283 20.2808C49.6755 19.458 52.3881 19.0132 55.2052 19.0132C56.7936 19.0132 58.3405 19.1789 59.8518 19.4499C60.0775 19.494 60.3064 19.5121 60.5319 19.5632C60.1584 20.3506 59.8104 21.1512 59.5016 21.9724C59.5016 21.9724 59.5016 21.9786 59.4954 21.9857C58.9296 23.4898 58.4885 25.0519 58.1515 26.6551C58.0411 27.1447 57.9702 27.6428 57.8745 28.1363C57.7976 28.5278 57.7267 28.9112 57.659 29.2906C57.6164 29.5477 57.5526 29.8006 57.5152 30.0583L57.4932 30.0483C57.4932 30.0483 57.4932 30.0529 57.4879 30.0583L53.5509 48.7934L65.4014 54.0545V64.51C65.4014 67.0663 67.5881 69.0639 70.108 68.8101L72.9988 68.7046L73.072 68.703V80.6792L66.3961 84.526L53.3154 91.9913Z" fill="#FF8426"/>
</g>
<defs>
<clipPath id="clip0_444_2644">
<rect width="140" height="100" fill="white"/>
</clipPath>
</defs>
</svg>
