<svg width="140" height="100" viewBox="0 0 140 100" fill="none" xmlns="http://www.w3.org/2000/svg">
<g clip-path="url(#clip0_444_2623)">
<g clip-path="url(#clip1_444_2623)">
<path d="M82.5279 54.7894L81.9382 54.7886V54.7894H81.9062C81.9266 55.8397 82.0266 56.8321 82.2074 57.7559C83.5822 64.7591 88.5592 69.6516 94.3095 69.6516C100.059 69.6516 105.036 64.7591 106.411 57.7559C106.584 56.8705 106.679 55.918 106.704 54.9161C106.707 54.8841 106.711 54.8538 106.712 54.8216H106.711C106.711 54.8107 106.712 54.8004 106.712 54.7896H82.5279V54.7894Z" fill="#FF8426"/>
<path d="M113.519 50.9516L112.549 37.4067H76.0713L75.1008 50.9524C74.9069 53.6695 75.0445 56.2485 75.5098 58.6189C76.8943 65.677 80.7294 71.4939 86.0315 74.5791C88.936 76.2683 90.7393 79.4342 90.7393 82.8398V89.9416C90.7393 91.7435 89.5397 93.2951 87.8215 93.7141C85.7241 94.2271 83.2231 95.2135 83.2231 97.0049C83.2231 99.6272 88.8008 101 94.3095 101C99.819 101 105.397 99.6274 105.397 97.0049C105.397 95.2125 102.896 94.2263 100.798 93.7141C99.0801 93.2951 97.8805 91.7435 97.8805 89.9416V82.8406C97.8805 79.434 99.6848 76.2683 102.59 74.5783C107.891 71.4947 111.726 65.6778 113.11 58.6197C113.576 56.2493 113.713 53.6693 113.519 50.9516ZM109.241 57.7788C107.516 66.5706 101.376 72.7114 94.3095 72.7114C87.2445 72.7114 81.1046 66.5706 79.3787 57.7788C78.9876 55.7846 78.8742 53.5932 79.0416 51.2645L79.7368 41.5623H108.883L109.578 51.2645C109.746 53.5958 109.632 55.788 109.241 57.7788Z" fill="#FF8426"/>
<path d="M55.7804 25.436V15.6462H54.9037V7.35489C54.9037 7.16257 54.8896 6.97166 54.8646 6.78719C54.86 6.75037 54.8465 6.71517 54.8411 6.67835V6.67614C54.8473 6.71356 54.8608 6.74876 54.8654 6.78719C54.8904 6.59929 54.9045 6.40858 54.9045 6.21385V2.09083C54.9045 -0.165313 53.066 -2 50.8096 -2H45.3589C43.1027 -2 41.2678 -0.165313 41.2678 2.09083V6.21385C41.2678 6.40697 41.2819 6.59789 41.3063 6.78397C41.3063 6.78397 41.3063 6.78638 41.3054 6.78719C41.2811 6.97166 41.2672 7.16257 41.2672 7.35489V15.6462H40.3905V25.436C35.1673 27.0828 27.3984 28.3438 27.3984 43.5562C27.3984 59.8493 29.5999 96.1779 29.6218 96.537L29.7688 99.0036C29.8352 100.123 30.7659 101 31.8874 101H64.2829C65.4042 101 66.3351 100.123 66.4014 99.0036L66.5485 96.5378C66.5704 96.1779 68.7718 59.8439 68.7718 43.5562C68.7718 27.7095 61.0038 27.0828 55.7804 25.436ZM54.5673 5.73908C54.4852 5.54354 54.3782 5.36289 54.2694 5.18385C54.3728 5.35344 54.4758 5.52242 54.5548 5.70629C54.5597 5.71736 54.5627 5.72822 54.5673 5.73908ZM53.0557 3.88428C52.865 3.75432 52.6578 3.64649 52.4465 3.54792C52.6578 3.64629 52.865 3.75432 53.0557 3.88428ZM44.8091 3.19285C44.8091 3.19285 44.8091 3.19285 44.8097 3.19285C45.0295 3.15382 45.2555 3.13572 45.4862 3.13572H50.6861C50.9158 3.13572 51.1419 3.15382 51.3616 3.19285C51.3725 3.19446 51.3828 3.19828 51.3928 3.19989V3.2007C51.3819 3.19828 51.3725 3.19446 51.3616 3.19285V4.12186L51.357 4.25484C51.1387 4.21661 50.9136 4.19851 50.6853 4.19851H45.4854C45.2625 4.19851 45.0442 4.21742 44.8316 4.25323C44.8237 4.25323 44.8167 4.25403 44.8089 4.25403V3.19285H44.8091ZM44.8091 9.2099V7.35469C44.8091 7.33981 44.8091 7.32593 44.8121 7.31567C44.8229 7.06058 44.9786 6.8401 45.2015 6.74152C45.2868 6.69928 45.383 6.67735 45.4854 6.67735H50.6853C50.7877 6.67735 50.883 6.69928 50.9683 6.74152C51.1912 6.84392 51.3469 7.06058 51.3578 7.31567C51.3616 7.32572 51.3616 7.33981 51.3616 7.35469V9.20668V15.6462H44.8089V9.2099H44.8091ZM60.3413 87.7365H35.8483C35.53 82.2081 35.0287 72.9486 34.6595 64.0465H60.5978L61.516 64.0473C61.1476 72.944 60.6501 82.2035 60.3413 87.7365ZM61.7248 58.6135H34.4509C34.3358 55.3509 34.2491 52.2563 34.2083 49.5668H61.6638H61.9674C61.9266 52.254 61.8399 55.3487 61.7248 58.6135Z" fill="#FF8426"/>
</g>
</g>
<defs>
<clipPath id="clip0_444_2623">
<rect width="140" height="100" fill="white"/>
</clipPath>
<clipPath id="clip1_444_2623">
<rect width="103" height="103" fill="white" transform="translate(19 -2)"/>
</clipPath>
</defs>
</svg>
